<svg xmlns="http://www.w3.org/2000/svg" viewBox="0 0 275.89 81.4"><defs><style>.cls-1{fill:#494391;}.cls-2{fill:none;}.cls-3{fill:#7573b0;}.cls-4{fill:#e4e6f2;}</style></defs><g id="Layer_2" data-name="Layer 2"><g id="Layer_1-2" data-name="Layer 1"><path class="cls-1" d="M105.39,70.94V12.1h8.91V38.2q7.32-6.18,14.13-12.78T141.5,12.1h11.65Q145.46,20.29,138,27.35T123.6,40.26q8,6.85,16,14.5t16,16.18H143.27q-4.74-5.07-9.83-10.08t-10-9.51q-4.92-4.5-9.17-8V70.94Z"/><path class="cls-1" d="M172.73,71.78q-6.64,0-10.34-3.4a11.84,11.84,0,0,1-3.66-9,12,12,0,0,1,4.12-9.29q4.16-3.75,13.24-3.74h11.43v-.13q0-10.59-9.75-10.59a14.71,14.71,0,0,0-6.89,1.48,12.19,12.19,0,0,0-4.5,4.12l-5.76-4.67a18.06,18.06,0,0,1,7.06-6.38,21.87,21.87,0,0,1,10-2.23h.92q7.74,0,12.45,4.46t4.7,13.33V71H187.7V64.12a16.94,16.94,0,0,1-6.27,5.72A19.14,19.14,0,0,1,172.73,71.78Zm1.85-7.48a14.16,14.16,0,0,0,8.11-2.18,13.56,13.56,0,0,0,4.84-6v-3.2H176.44c-3.31,0-5.68.54-7.11,1.6a5,5,0,0,0-2.1,4.24C167.22,62.45,169.68,64.3,174.58,64.3Z"/><path class="cls-1" d="M226.35,71.49q-7.48,0-11.39-3.79t-3.91-11.64V36.22h-8.24V28.91h8.24V16.38h8.41V28.91h14.17v7.31H219.46V54.93c0,3.3.68,5.6,2.06,6.89s3.4,1.94,6.1,1.94a31.88,31.88,0,0,0,3.44-.17c1-.11,2.11-.25,3.2-.42v7.36a33.17,33.17,0,0,1-3.78.68A32.69,32.69,0,0,1,226.35,71.49Z"/><path class="cls-1" d="M258.07,72a26.58,26.58,0,0,1-10.93-2.06,19.44,19.44,0,0,1-7.65-6.14l5.72-5.26q4.54,6.09,12.78,6.1h.84a13.39,13.39,0,0,0,6.43-1.26,4.1,4.1,0,0,0,2.31-3.74,4.2,4.2,0,0,0-1.51-3.33q-1.47-1.29-5.43-2.1l-7.18-1.51Q240.93,50,240.92,41a11.39,11.39,0,0,1,4.58-9.46q4.59-3.62,12.15-3.62h.92q10.76,0,16.52,8l-5.72,4.74a12.86,12.86,0,0,0-4.92-4.12,13.91,13.91,0,0,0-6-1.26h-.84a12.66,12.66,0,0,0-6.1,1.3,4.06,4.06,0,0,0-2.3,3.7,3.48,3.48,0,0,0,1.42,2.91,14,14,0,0,0,4.92,1.8L264,46.75a17.88,17.88,0,0,1,8.66,4.2,10.49,10.49,0,0,1,3.24,8.11,11.6,11.6,0,0,1-4.33,9.25c-2.86,2.4-7,3.61-12.57,3.61h-.92Z"/><path class="cls-2" d="M51.17,31l0,0h0Z"/><path class="cls-2" d="M51.29,31a.2.2,0,0,0-.08,0h0Z"/><path class="cls-1" d="M51.19,31l0,0h0Zm1.28,1h0Zm-1.3-1h0Zm.06,0,0,0,0,0a.2.2,0,0,1,.08,0Zm-1-.51h0l-.37-.14.37.15.12,0Zm-.75,8.73v0l0-.05A.05.05,0,0,1,49.44,39.21Zm.21-3a3.13,3.13,0,0,1,.25,1.22v.2a3.58,3.58,0,0,1-.12.87,2.82,2.82,0,0,0,.13-.87v-.2A3,3,0,0,0,49.65,36.17Zm-6,1.22v.2a.66.66,0,0,0,0,.14v-.47A.57.57,0,0,0,43.6,37.39Zm0,.7v0h0A.13.13,0,0,1,43.65,38.09Zm0-1.25v0Zm0,0s0,0,0,0a0,0,0,0,0,0,0Zm.07,1.5v0Zm0-1.8v0Zm-13.45,16v0h0l.09-.18Zm-1.49,5.94v-.06a0,0,0,0,0,0,0,1.27,1.27,0,0,1,0,.2v.17A3.14,3.14,0,0,1,27.86,61h0a3.11,3.11,0,0,0,.92-2.21v-.19A.34.34,0,0,0,28.78,58.49Zm-1.39,2.88a2,2,0,0,1-.19.12l.06,0,.13-.08a0,0,0,0,0,0,0Zm-1.75.54h-.33a1.83,1.83,0,0,0,.33,0,2.89,2.89,0,0,0,.94-.15A3.24,3.24,0,0,1,25.64,61.91ZM22.5,58.77V58.6c0-.13,0-.27,0-.4a.17.17,0,0,0,0,.07c0,.11,0,.21,0,.32v.19A3,3,0,0,0,23,60.53,3.25,3.25,0,0,1,22.5,58.77ZM5.86,5.85V59.14s0,0,0,0V5.85Z"/><path class="cls-1" d="M5.86,5.84h0ZM52.71,31.58l-.09.14a.71.71,0,0,0,.1-.14,1.51,1.51,0,0,0,.1-.17Zm-.2.31a0,0,0,0,0,0,0l0-.08Zm0,0h0Zm-.55-.47s0,0,0,0h0Zm-.28-.19h0Zm-.54-.33,0,0h0Zm-6.79,8.65h0Zm-.15-.22,0,0s0,0,0,0a1.09,1.09,0,0,0,.13.17ZM44,35.9h0l0-.06A.21.21,0,0,0,44,35.9Zm0,3.18h0a.21.21,0,0,0,0,.06ZM43.64,38a.08.08,0,0,1,0,0,.43.43,0,0,0,0,.19v-.07A.11.11,0,0,1,43.64,38Zm0-.08a0,0,0,0,1,0,0v0a.06.06,0,0,0,0,0,0,0,0,0,1,0,0A0,0,0,0,1,43.63,38Zm0-1a.49.49,0,0,0,0,.12.3.3,0,0,1,0-.1S43.65,36.91,43.64,36.9Zm0,.22a.07.07,0,0,1,0,0h0v0a.07.07,0,0,0,0,0A0,0,0,0,0,43.62,37.12Zm0-.24h0s0,0,0,0A0,0,0,0,0,43.64,36.88ZM38,36.64l-.09.18a1.62,1.62,0,0,0,.1-.18Zm-1,1.8c0,.11-.1.22-.16.33.06-.11.12-.22.17-.33Zm-1.62,3.27-.06.14c.11-.25.24-.48.35-.71C35.62,41.32,35.51,41.51,35.42,41.71Zm-.41.84a1.42,1.42,0,0,1-.08.18l.43-.88C35.24,42.08,35.13,42.32,35,42.55ZM32.3,48.27h0l-.21.46c.17-.38.36-.76.54-1.16C32.52,47.82,32.41,48,32.3,48.27Zm-3.54,10a.17.17,0,0,1,0,.07v0S28.77,58.26,28.76,58.25Zm-4.62-2.44-.25.17.25-.16h0Zm-8.3.69a7.69,7.69,0,0,1,.64.86A6.63,6.63,0,0,0,15.84,56.5Zm-4.27,4c-.34,1.16-.72,2.55-1.1,4,.39-1.44.77-2.83,1.11-4,.07-.25.14-.51.22-.77C11.72,60,11.64,60.26,11.57,60.51ZM7,56.14c-.09.22-.17.43-.26.64a2.49,2.49,0,0,0-.11.29c-.12.29-.23.58-.33.88q.21-.6.45-1.17c.12-.3.25-.61.39-.92Z"/><path class="cls-1" d="M43.64,36.88h0s0,0,0,0S43.64,36.87,43.64,36.88ZM27.14,61.53l.12-.07-.06,0ZM10.63,50.94a1.67,1.67,0,0,1,.28-.18l-.06,0Z"/><path class="cls-1" d="M56.19,37h0L74.36,8.65c.9-1.41,1.83-2.83,2.73-4.26A2.81,2.81,0,0,0,76.65.91l-.21-.2A3.38,3.38,0,0,0,76,.38,2.77,2.77,0,0,0,74.56,0H2.92A2.92,2.92,0,0,0,1.31.5,3.83,3.83,0,0,0,.87.86,2.89,2.89,0,0,0,0,2.91V78.48a2.67,2.67,0,0,0,.81,2l0,0,.07.06a3.09,3.09,0,0,0,.39.33,2.66,2.66,0,0,0,.72.34,3.32,3.32,0,0,0,.58.11H74.15a2.92,2.92,0,0,0,1.74-.88,3.39,3.39,0,0,0,.72-1.09,3.26,3.26,0,0,0,.19-.76c0-.19,0-.4,0-.63a.92.92,0,0,0,0-.16c0-.06,0-.12,0-.17s-.07-.23-.11-.35-.06-.15-.1-.23L76.46,77c-.3-.57-.59-1.16-.87-1.74s-.57-1.16-.86-1.73C74,72,73.22,70.5,72.48,69Q70.23,64.38,68,59.8c-3.73-7.62-7.53-15.22-11.75-22.6a.87.87,0,0,1-.09-.17s0,0,0,0ZM28.77,58.27h0a.06.06,0,0,1,0,.06s0,0,0,0,0,0,0,0a0,0,0,0,1,0,0v.06a.34.34,0,0,1,0,.1v.19A3.11,3.11,0,0,1,27.87,61h0a1.9,1.9,0,0,1-.46.38,0,0,0,0,1,0,0l-.13.08-.06,0-.06,0h0l-.05,0-.11.06-.09,0-.29.11a2.89,2.89,0,0,1-.94.15,1.83,1.83,0,0,1-.33,0,1.54,1.54,0,0,1-.31,0,2.78,2.78,0,0,1-.86-.32h0a2.38,2.38,0,0,1-.49-.34,3.47,3.47,0,0,1-.61-.66,3,3,0,0,1-.54-1.75v-.19c0-.11,0-.21,0-.32a.17.17,0,0,1,0-.07c0-.05,0-.1,0-.14a2,2,0,0,1,.05-.26,1.6,1.6,0,0,1,.1-.31.69.69,0,0,1,0-.13c0-.09.08-.18.13-.27a2,2,0,0,1,.17-.27,2.67,2.67,0,0,1,.38-.45l.17-.16a1.25,1.25,0,0,1,.19-.15l.11-.08.25-.17h0a.52.52,0,0,1,.13-.06l.13-.07.37-.13a2,2,0,0,1,.49-.09l.37,0h0l.29,0h0l.23,0h0l.2.05.24.07a2.28,2.28,0,0,1,.4.17.39.39,0,0,1,.16.1l.13.07.17.12a1.1,1.1,0,0,1,.18.14l.17.16h0a2.34,2.34,0,0,1,.37.45,2,2,0,0,1,.17.27,1.23,1.23,0,0,1,.12.26.42.42,0,0,1,.06.14,2.81,2.81,0,0,1,.1.31,2.21,2.21,0,0,1,0,.25s0,.07,0,.11,0,0,0,.06h0s0,0,0,0h0S28.77,58.26,28.77,58.27ZM43.71,38.35a.49.49,0,0,0,0-.11s0,0,0-.06v0h0a.43.43,0,0,1,0-.19.06.06,0,0,1,0,0v0a19854230707020,19854230707020,0,0,0,0-.28v-.2a.57.57,0,0,1,0-.13.33.33,0,0,1,0-.14,0,0,0,0,1,0,0,.07.07,0,0,1,0,0,.49.49,0,0,1,0-.12v0a0,0,0,0,1,0,0v0h0a0,0,0,0,1,0,0,.19.19,0,0,1,0-.1.06.06,0,0,1,0,0v0a.06.06,0,0,1,0,0v0a.06.06,0,0,1,0,0,1.59,1.59,0,0,1,.07-.2s0-.09,0-.13A1.75,1.75,0,0,1,44,36s0,0,0-.05a.21.21,0,0,1,0-.06l.08-.14a.08.08,0,0,1,0,0s0,0,0,0a.37.37,0,0,1,.06-.1l0-.06,0-.07h0l.2-.21a3.1,3.1,0,0,1,2.21-.92,3.16,3.16,0,0,1,2.23.92,3.08,3.08,0,0,1,.67,1,3,3,0,0,1,.26,1.22v.2a2.82,2.82,0,0,1-.13.87c0,.09-.06.18-.1.27a1.9,1.9,0,0,1-.21.43l0,.05v0h0a1.37,1.37,0,0,1-.2.29,2,2,0,0,1-.23.27,3.16,3.16,0,0,1-2.23.92,3.1,3.1,0,0,1-2.21-.92l-.2-.22h0l0-.07,0-.06a1.09,1.09,0,0,1-.13-.17L44,39.14a.21.21,0,0,1,0-.06s0,0,0,0a.36.36,0,0,1,0-.09.91.91,0,0,1-.07-.14h0l0-.1v0c0-.05,0-.1-.05-.15s0,0,0-.06a.06.06,0,0,1,0,0v0h0ZM53.1,31a2.62,2.62,0,0,0-.17.27l-.11.16a1.51,1.51,0,0,1-.1.17.71.71,0,0,1-.1.14.44.44,0,0,1-.06.1v0l0,.08h0l0,0s0,0,0,0h0s0,0,0,0l0,0h0l-.07-.07-.09-.08h0a0,0,0,0,0,0,0h0l0,0s0,0,0,0h0a0,0,0,0,0,0,0l0,0,0-.05h0s0,0,0,0a0,0,0,0,1,0,0h0l-.09-.06h0l0,0,0,0,0,0h0l0,0-.1-.06-.16-.1-.06,0a.2.2,0,0,0-.08,0l0,0h0l0,0,0,0a.09.09,0,0,1-.06,0h0l-.29-.15-.09,0h0l-.06,0-.14-.06,0,0,0,0h0l-.12,0-.37-.15-.12,0-.08,0L49,30.08l-.44-.1c-.29-.06-.59-.11-.91-.15l-.48,0a7.84,7.84,0,0,0-.84,0h-.27l-.61.07h0L45,30h0l-.33.08a7.46,7.46,0,0,0-1.79.72l-.18.1-.1.06-.35.23-.36.26-.38.3a8.84,8.84,0,0,0-.71.67,5.84,5.84,0,0,0-.4.44l-.39.47c-.09.12-.19.27-.29.42l-.18.24-.16.26-.18.28c-.18.29-.37.62-.57,1l-.2.37a.59.59,0,0,1,0,.08c-.09.17-.19.34-.28.52l-.1.17s0,0,0,0a1.62,1.62,0,0,1-.1.18c-.25.46-.52,1-.79,1.49l-.06.13c0,.11-.11.22-.17.33-.38.75-.77,1.55-1.17,2.37-.11.23-.24.46-.35.71l-.43.88c-.09.19-.18.37-.26.55l-.24.5-.11.22c-.08.19-.17.38-.26.57-.26.53-.51,1.06-.77,1.6l-.33.71-.33.7c-.18.4-.37.78-.54,1.16l-.41.86h0c-.09.23-.2.44-.3.65l-.29.6v0c-.09.18-.18.36-.26.54l-.35.75a1.24,1.24,0,0,1-.1.2h0l-.09.18h0l-.2-.15,0,0,0,0-.21-.14a3.14,3.14,0,0,0-.46-.28l-.48-.26a3.52,3.52,0,0,0-.39-.17l-.19-.08L28,51.34l-.39-.11s-.05,0-.08,0h0l-.08,0-.3-.07h0L26.76,51,26.28,51l-.6,0h0a7.6,7.6,0,0,0-5.35,2.2A7.1,7.1,0,0,0,18,50.94a7.15,7.15,0,0,0-5.68-.83,5.12,5.12,0,0,0-.77.3l-.46.25-.09.06h0s0,0,0,0a1.67,1.67,0,0,0-.28.18l-.14.11-.06,0a1.56,1.56,0,0,0-.2.16l-.06,0-.1.08-.2.19c-.13.12-.25.25-.37.38s-.23.25-.34.38a.12.12,0,0,0-.05.05l-.17.21c-.11.14-.22.29-.32.44l-.07.11c-.06.09-.12.17-.17.26a4.11,4.11,0,0,0-.24.39.08.08,0,0,0,0,.05c-.08.13-.16.27-.23.41-.23.41-.43.83-.62,1.26l-.15.35c-.14.31-.27.62-.39.92s-.31.77-.45,1.17h0c-.07.19-.14.4-.2.59s-.14.4-.2.6v0s0,0,0,0V5.84H69.23L61.16,18.41Q57.14,24.7,53.1,31Z"/><path class="cls-3" d="M69.23,75.56H7.65s.84-3.42,1.85-7.31c.1-.42.21-.83.32-1.25s.21-.83.32-1.26l.33-1.24c.39-1.44.77-2.83,1.11-4,.07-.25.14-.51.22-.77s.17-.51.26-.76a12.28,12.28,0,0,1,1.19-2.41c.84-1.35,1.75-1,2.59-.07a7.69,7.69,0,0,1,.64.86c.25.41.5.86.73,1.31l.4.81.35.8.21.47c.22.54.4,1,.52,1.23a.36.36,0,0,0,.07.1c.09.16.2.3.27.46a5.39,5.39,0,0,0,.38.62l0,.05a.12.12,0,0,1,.05,0c.17.24.36.46.56.69s.41.42.63.61a7.79,7.79,0,0,0,.71.54q.36.24.75.45a7.54,7.54,0,0,0,7.58-.36,9,9,0,0,0,3.12-3.89c.08-.14.15-.29.22-.44s.09-.2.14-.3c.2-.43.41-.91.62-1.41.07-.17.14-.35.22-.53l2.35-5.25,2.45-5.46,1.9-4.23.42-.94.17.18a1.45,1.45,0,0,0,.21.22,6.69,6.69,0,0,0,.58.5,6.15,6.15,0,0,0,1.76,1l.35.13a5.36,5.36,0,0,0,.81.22,1.8,1.8,0,0,0,.32.06,7.87,7.87,0,0,0,1.38.12,7.58,7.58,0,0,0,1.73-.2,8.4,8.4,0,0,0,1.2-.39,7.66,7.66,0,0,0,.76-.37,6.45,6.45,0,0,0,1-.7,5.41,5.41,0,0,0,.62-.55,4.61,4.61,0,0,0,.56-.6l.22.38c.3.51.58,1,.86,1.55a3.14,3.14,0,0,1,.18.31c.29.54.59,1.1.87,1.65,2.06,3.94,3.95,8,5.92,11.94C62.13,61.11,63.55,64,65,66.89S67.79,72.68,69.23,75.56Z"/><path class="cls-4" d="M69.23,5.85,61.16,18.41Q57.14,24.7,53.1,31a2.62,2.62,0,0,0-.17.27l-.11.16-.11.17-.09.14a.44.44,0,0,1-.06.1v0l0,.05a0,0,0,0,0,0,0h0l0,0s0,0,0,0,0-.05-.07-.08h0l-.07-.07-.09-.08h0a0,0,0,0,0,0,0h0l0,0s0,0,0,0h0a0,0,0,0,0,0,0l0,0,0-.05h0a0,0,0,0,1,0,0h0l-.09-.06h0l0,0,0,0,0,0h0l0,0-.1-.06-.16-.1-.06,0-.06,0,0,0,0,0h0l0,0,0,0a.09.09,0,0,1-.06,0h0l-.29-.15-.09,0h0l-.06,0-.14-.06,0,0,0,0h0l-.11-.05h0a2.35,2.35,0,0,0-.37-.14l-.12,0-.08,0L49,30.08l-.44-.1a6.4,6.4,0,0,0-.91-.15,3.88,3.88,0,0,0-.48,0,7.84,7.84,0,0,0-.84,0h-.27l-.61.07h0A3.28,3.28,0,0,0,45,30h0l-.33.08a7.46,7.46,0,0,0-1.79.72l-.18.1-.1.06-.35.23-.36.26-.38.3a8.84,8.84,0,0,0-.71.67,5.84,5.84,0,0,0-.4.44l-.39.47c-.09.12-.19.27-.29.42l-.18.24-.16.26-.18.28c-.18.29-.37.62-.57,1l-.2.37a.59.59,0,0,1,0,.08c-.09.17-.19.34-.28.52l-.1.17s0,0,0,0h0l-.09.18c-.25.46-.52,1-.79,1.49l-.06.13h0c0,.11-.1.22-.16.33-.38.75-.77,1.55-1.17,2.37-.09.18-.2.37-.29.57l-.06.14c-.12.23-.23.47-.35.7a1.42,1.42,0,0,1-.08.18c-.09.19-.18.37-.26.55l-.24.5-.11.22c-.08.19-.17.38-.26.57-.26.53-.51,1.06-.77,1.6l-.33.71-.33.7c-.11.24-.22.46-.33.69h0l-.21.46-.41.86h0c-.09.23-.2.44-.3.65l-.29.6v0c-.09.18-.18.36-.26.54l-.35.75a1.24,1.24,0,0,1-.1.2h0l-.1.17v0l-.2-.15,0,0,0,0-.21-.14a3.14,3.14,0,0,0-.46-.28l-.48-.26a3.52,3.52,0,0,0-.39-.17l-.19-.08L28,51.34l-.39-.11s-.05,0-.08,0h0l-.08,0-.3-.07h0L26.76,51,26.28,51l-.6,0h0a7.6,7.6,0,0,0-5.35,2.2A7.1,7.1,0,0,0,18,50.94a7.15,7.15,0,0,0-5.68-.83,5.12,5.12,0,0,0-.77.3l-.46.25-.09.06h0s0,0,0,0l-.06,0-.22.15-.14.11-.06,0a1.56,1.56,0,0,0-.2.16l-.06,0-.1.08-.2.19c-.13.12-.25.25-.37.38s-.23.25-.34.38a.12.12,0,0,0-.05.05l-.17.21c-.11.14-.22.29-.32.44l-.07.11c-.06.09-.12.17-.17.26a4.11,4.11,0,0,0-.24.39.08.08,0,0,0,0,.05c-.08.13-.16.27-.23.41-.23.41-.43.83-.62,1.26l-.15.35L7,56.14c-.09.22-.17.43-.26.64a2.49,2.49,0,0,0-.11.29c-.12.29-.23.58-.33.88h0c-.07.19-.14.4-.2.59s-.14.4-.2.6V5.85Z"/><path class="cls-3" d="M41,42.56h0l0,0Z"/><path class="cls-4" d="M30.37,52.38l-.09.18h0v0Z"/><path class="cls-4" d="M50.3,30.53l-.12,0-.37-.15.37.14h0Z"/><path class="cls-4" d="M51.23,31h0l0,0Z"/><path class="cls-4" d="M52.48,31.94h0Z"/><path class="cls-4" d="M49.91,37.39v.2a2.82,2.82,0,0,1-.13.87c0,.09-.06.18-.1.27a1.9,1.9,0,0,1-.21.43.05.05,0,0,1,0,.05l0,0h0a3,3,0,0,1-.2.29,2,2,0,0,1-.23.27,3.16,3.16,0,0,1-2.23.92,3.1,3.1,0,0,1-2.21-.92l-.2-.22h0l-.06-.07,0-.06a1.09,1.09,0,0,1-.13-.17L44,39.14l0-.06,0,0a.36.36,0,0,1,0-.09.91.91,0,0,1-.07-.14h0l0-.1v0c0-.05,0-.1-.05-.15s0,0,0-.06a.06.06,0,0,1,0,0v0h0v0a.25.25,0,0,0,0-.11s0,0,0-.06v0h0a.13.13,0,0,1,0-.06v0a.11.11,0,0,1,0-.08.13.13,0,0,1,0-.08v0a19854230707020,19854230707020,0,0,0,0-.28v-.2a.57.57,0,0,1,0-.13.33.33,0,0,1,0-.14,0,0,0,0,1,0,0v0a.2.2,0,0,1,0-.13s0,0,0,0v0h0s0,0,0,0,0,0,0,0a0,0,0,0,1,0,0,.19.19,0,0,1,0-.1.06.06,0,0,1,0,0v0a.06.06,0,0,1,0,0v0a.06.06,0,0,1,0,0,1.59,1.59,0,0,1,.07-.2s0-.09,0-.13A1.75,1.75,0,0,1,44,36l0-.05,0-.06.08-.14a.27.27,0,0,1,.07-.08.37.37,0,0,1,.06-.1l0-.06.06-.07h0l.2-.21a3.1,3.1,0,0,1,2.21-.92,3.16,3.16,0,0,1,2.23.92,3.08,3.08,0,0,1,.67,1A3,3,0,0,1,49.91,37.39Z"/><path class="cls-4" d="M28.79,58.59v.19A3.11,3.11,0,0,1,27.87,61h0a1.9,1.9,0,0,1-.46.38,0,0,0,0,1,0,0l-.13.08-.12.07h0l-.05,0-.11.06-.09,0-.29.11a2.89,2.89,0,0,1-.94.15,2.67,2.67,0,0,1-.64-.07,2.78,2.78,0,0,1-.86-.32h0a3.91,3.91,0,0,1-.49-.34,3.47,3.47,0,0,1-.61-.66,3,3,0,0,1-.54-1.75v-.19c0-.11,0-.21,0-.32a.17.17,0,0,1,0-.07c0-.05,0-.1,0-.14a2,2,0,0,1,.05-.26,1.6,1.6,0,0,1,.1-.31.69.69,0,0,1,0-.13c0-.09.08-.18.13-.27a2,2,0,0,1,.17-.27,2.67,2.67,0,0,1,.38-.45l.17-.16.19-.15.11-.08.25-.16h0a.52.52,0,0,1,.13-.06l.13-.07.37-.13a2,2,0,0,1,.49-.09l.37,0h0l.29,0h0l.23,0h0l.2.05.24.07a2.28,2.28,0,0,1,.4.17.39.39,0,0,1,.16.1l.13.07.17.12a.86.86,0,0,1,.18.14l.17.16h0a2.34,2.34,0,0,1,.37.45,2,2,0,0,1,.17.27,1.23,1.23,0,0,1,.12.26.42.42,0,0,1,.06.14,2.81,2.81,0,0,1,.1.31,2.21,2.21,0,0,1,0,.25s0,.07,0,.11,0,0,0,.06,0,0,0,0h0s0,0,0,0h0s0,0,0,.06,0,0,0,0,0,0,0,0a0,0,0,0,1,0,0v.06A.34.34,0,0,1,28.79,58.59Z"/></g></g></svg>